<svg width="1020" height="212" viewBox="0 0 1020 212" fill="none" xmlns="http://www.w3.org/2000/svg">
<path d="M27.6588 9.536C27.4454 9.89867 27.2214 10.1653 26.9868 10.336C26.7521 10.5067 26.4534 10.592 26.0908 10.592C25.7068 10.592 25.2694 10.4213 24.7788 10.08C24.2881 9.71733 23.6694 9.32267 22.9228 8.896C22.1974 8.448 21.3228 8.05333 20.2988 7.712C19.2748 7.34933 18.0481 7.168 16.6188 7.168C15.2748 7.168 14.0908 7.34933 13.0668 7.712C12.0641 8.05333 11.2214 8.53333 10.5388 9.152C9.85608 9.74933 9.33342 10.464 8.97075 11.296C8.62942 12.1067 8.45875 12.992 8.45875 13.952C8.45875 15.1893 8.76808 16.2133 9.38675 17.024C10.0268 17.8347 10.8588 18.528 11.8828 19.104C12.9068 19.68 14.0694 20.1813 15.3708 20.608C16.6721 21.0347 18.0054 21.4827 19.3708 21.952C20.7361 22.4 22.0694 22.9227 23.3708 23.52C24.6721 24.1173 25.8348 24.8747 26.8588 25.792C27.8828 26.688 28.7041 27.7973 29.3228 29.12C29.9628 30.4213 30.2828 32.0213 30.2828 33.92C30.2828 35.9467 29.9308 37.8453 29.2268 39.616C28.5441 41.3867 27.5414 42.9333 26.2188 44.256C24.8961 45.5787 23.2641 46.624 21.3228 47.392C19.4028 48.1387 17.2161 48.512 14.7628 48.512C13.2908 48.512 11.8614 48.3627 10.4748 48.064C9.08808 47.7867 7.77608 47.392 6.53875 46.88C5.30142 46.3467 4.13875 45.7173 3.05075 44.992C1.98408 44.2453 1.02408 43.4133 0.17075 42.496L2.12275 39.232C2.31475 38.976 2.53875 38.7627 2.79475 38.592C3.07208 38.4213 3.38142 38.336 3.72275 38.336C4.17075 38.336 4.68275 38.5707 5.25875 39.04C5.85608 39.5093 6.58142 40.032 7.43475 40.608C8.30942 41.1627 9.34408 41.6747 10.5388 42.144C11.7548 42.6133 13.2268 42.848 14.9548 42.848C16.3628 42.848 17.6214 42.6667 18.7308 42.304C19.8401 41.92 20.7681 41.3867 21.5148 40.704C22.2828 40 22.8694 39.1573 23.2748 38.176C23.6801 37.1947 23.8828 36.1067 23.8828 34.912C23.8828 33.568 23.5734 32.4693 22.9548 31.616C22.3361 30.7627 21.5148 30.048 20.4908 29.472C19.4668 28.896 18.3041 28.4053 17.0028 28C15.7014 27.5947 14.3681 27.1787 13.0028 26.752C11.6374 26.304 10.3041 25.792 9.00275 25.216C7.70142 24.64 6.53875 23.8933 5.51475 22.976C4.49075 22.0373 3.66942 20.8747 3.05075 19.488C2.43208 18.08 2.12275 16.352 2.12275 14.304C2.12275 12.6613 2.44275 11.072 3.08275 9.536C3.72275 8 4.65075 6.64533 5.86675 5.472C7.10408 4.27733 8.61875 3.328 10.4108 2.624C12.2028 1.89867 14.2508 1.536 16.5548 1.536C19.1361 1.536 21.5041 1.952 23.6588 2.784C25.8348 3.59466 27.7228 4.768 29.3228 6.304L27.6588 9.536ZM43.6933 15.488V48H37.4533V15.488H43.6933ZM44.8773 5.44C44.8773 6.016 44.7599 6.57066 44.5253 7.104C44.2906 7.616 43.9706 8.07467 43.5653 8.48C43.1813 8.864 42.7226 9.17333 42.1892 9.408C41.6559 9.62133 41.1013 9.728 40.5253 9.728C39.9493 9.728 39.4053 9.62133 38.8933 9.408C38.3813 9.17333 37.9226 8.864 37.5173 8.48C37.1333 8.07467 36.8239 7.616 36.5893 7.104C36.3759 6.57066 36.2693 6.016 36.2693 5.44C36.2693 4.84267 36.3759 4.288 36.5893 3.776C36.8239 3.24266 37.1333 2.784 37.5173 2.4C37.9226 1.99466 38.3813 1.68533 38.8933 1.472C39.4053 1.23733 39.9493 1.12 40.5253 1.12C41.1013 1.12 41.6559 1.23733 42.1892 1.472C42.7226 1.68533 43.1813 1.99466 43.5653 2.4C43.9706 2.784 44.2906 3.24266 44.5253 3.776C44.7599 4.288 44.8773 4.84267 44.8773 5.44ZM71.8958 21.088C71.7251 21.3653 71.5438 21.568 71.3518 21.696C71.1598 21.8027 70.9144 21.856 70.6158 21.856C70.2744 21.856 69.8904 21.7387 69.4638 21.504C69.0584 21.2693 68.5571 21.0133 67.9598 20.736C67.3838 20.4587 66.7011 20.2027 65.9118 19.968C65.1224 19.7333 64.1838 19.616 63.0958 19.616C62.1998 19.616 61.3784 19.7333 60.6318 19.968C59.9064 20.1813 59.2878 20.4907 58.7758 20.896C58.2638 21.28 57.8691 21.7493 57.5918 22.304C57.3144 22.8373 57.1758 23.4133 57.1758 24.032C57.1758 24.8427 57.4104 25.5147 57.8798 26.048C58.3704 26.5813 58.9998 27.04 59.7678 27.424C60.5571 27.808 61.4424 28.16 62.4238 28.48C63.4264 28.7787 64.4398 29.0987 65.4638 29.44C66.5091 29.7813 67.5224 30.176 68.5038 30.624C69.5064 31.0507 70.3918 31.5947 71.1598 32.256C71.9491 32.896 72.5784 33.6747 73.0478 34.592C73.5384 35.5093 73.7838 36.6293 73.7838 37.952C73.7838 39.4667 73.5064 40.8747 72.9518 42.176C72.4184 43.456 71.6184 44.5653 70.5518 45.504C69.5064 46.4427 68.2051 47.1787 66.6478 47.712C65.0904 48.2453 63.3091 48.512 61.3038 48.512C59.0638 48.512 56.9944 48.1387 55.0958 47.392C53.1971 46.6453 51.6078 45.696 50.3278 44.544L51.7998 42.144C51.9704 41.8453 52.1838 41.6213 52.4398 41.472C52.6958 41.3013 53.0371 41.216 53.4638 41.216C53.8691 41.216 54.2851 41.3653 54.7118 41.664C55.1384 41.9627 55.6504 42.2933 56.2478 42.656C56.8451 42.9973 57.5704 43.3173 58.4238 43.616C59.2771 43.8933 60.3438 44.032 61.6238 44.032C62.6904 44.032 63.6184 43.904 64.4078 43.648C65.1971 43.3707 65.8478 43.008 66.3598 42.56C66.8931 42.0907 67.2878 41.5573 67.5438 40.96C67.7998 40.3627 67.9278 39.7333 67.9278 39.072C67.9278 38.2187 67.6824 37.5147 67.1918 36.96C66.7224 36.384 66.0931 35.8933 65.3038 35.488C64.5358 35.0827 63.6504 34.7307 62.6478 34.432C61.6451 34.1333 60.6211 33.8133 59.5758 33.472C58.5304 33.1307 57.5064 32.736 56.5038 32.288C55.5011 31.84 54.6051 31.2747 53.8158 30.592C53.0478 29.9093 52.4184 29.0773 51.9278 28.096C51.4584 27.1147 51.2238 25.92 51.2238 24.512C51.2238 23.2533 51.4798 22.048 51.9918 20.896C52.5251 19.744 53.2824 18.7307 54.2638 17.856C55.2664 16.9813 56.4931 16.288 57.9438 15.776C59.4158 15.2427 61.0904 14.976 62.9678 14.976C65.1224 14.976 67.0638 15.3173 68.7918 16C70.5411 16.6827 72.0344 17.6213 73.2718 18.816L71.8958 21.088ZM90.7163 48.512C88.0923 48.512 86.0656 47.776 84.6363 46.304C83.2283 44.832 82.5243 42.7307 82.5243 40V20.544H78.7483C78.3856 20.544 78.0763 20.4373 77.8203 20.224C77.5856 19.9893 77.4683 19.648 77.4683 19.2V16.672L82.7483 15.936L84.1562 6.24C84.2416 5.87733 84.4016 5.6 84.6363 5.408C84.8923 5.19466 85.2123 5.088 85.5963 5.088H88.7643V16H97.9803V20.544H88.7643V39.584C88.7643 40.864 89.0736 41.824 89.6923 42.464C90.3323 43.0827 91.1429 43.392 92.1243 43.392C92.7003 43.392 93.1909 43.3173 93.5963 43.168C94.0229 43.0187 94.3856 42.8587 94.6843 42.688C94.9829 42.496 95.2389 42.3253 95.4523 42.176C95.6656 42.0267 95.8576 41.952 96.0283 41.952C96.2416 41.952 96.4016 42.0053 96.5083 42.112C96.6363 42.1973 96.7643 42.3467 96.8923 42.56L98.7483 45.568C97.7243 46.5067 96.5083 47.232 95.1003 47.744C93.6923 48.256 92.2309 48.512 90.7163 48.512ZM125.076 28.128C125.076 26.8907 124.895 25.7493 124.532 24.704C124.191 23.6587 123.679 22.752 122.996 21.984C122.314 21.216 121.482 20.6187 120.5 20.192C119.519 19.7653 118.388 19.552 117.108 19.552C114.484 19.552 112.415 20.3093 110.9 21.824C109.407 23.3387 108.458 25.44 108.052 28.128H125.076ZM130.228 43.36C129.46 44.256 128.575 45.0347 127.572 45.696C126.57 46.336 125.503 46.8587 124.372 47.264C123.242 47.6693 122.068 47.968 120.852 48.16C119.658 48.352 118.474 48.448 117.3 48.448C115.06 48.448 112.98 48.0747 111.06 47.328C109.162 46.56 107.508 45.4507 106.1 44C104.714 42.528 103.626 40.7147 102.836 38.56C102.068 36.384 101.684 33.888 101.684 31.072C101.684 28.8107 102.036 26.7093 102.74 24.768C103.444 22.8053 104.447 21.0987 105.748 19.648C107.071 18.1973 108.682 17.056 110.58 16.224C112.479 15.392 114.612 14.976 116.98 14.976C118.964 14.976 120.788 15.3067 122.452 15.968C124.138 16.608 125.588 17.5467 126.804 18.784C128.02 20.0213 128.97 21.5467 129.652 23.36C130.356 25.1733 130.708 27.2427 130.708 29.568C130.708 30.528 130.602 31.1787 130.388 31.52C130.175 31.84 129.78 32 129.204 32H107.892C107.956 33.9413 108.234 35.6373 108.724 37.088C109.215 38.5173 109.887 39.712 110.74 40.672C111.615 41.632 112.65 42.3467 113.844 42.816C115.039 43.2853 116.372 43.52 117.844 43.52C119.231 43.52 120.426 43.36 121.428 43.04C122.452 42.72 123.327 42.3787 124.052 42.016C124.799 41.632 125.418 41.28 125.908 40.96C126.42 40.64 126.868 40.48 127.252 40.48C127.764 40.48 128.159 40.672 128.436 41.056L130.228 43.36ZM137.415 48V15.488H141.159C142.034 15.488 142.578 15.904 142.791 16.736L143.239 19.84C144.434 18.4107 145.757 17.248 147.207 16.352C148.679 15.4347 150.397 14.976 152.359 14.976C154.514 14.976 156.263 15.5733 157.607 16.768C158.951 17.9413 159.933 19.5413 160.551 21.568C161.021 20.416 161.629 19.424 162.375 18.592C163.122 17.76 163.954 17.0773 164.871 16.544C165.789 16.0107 166.759 15.616 167.783 15.36C168.829 15.104 169.885 14.976 170.951 14.976C172.679 14.976 174.215 15.2533 175.559 15.808C176.925 16.3413 178.077 17.1307 179.015 18.176C179.954 19.2213 180.669 20.512 181.159 22.048C181.65 23.584 181.895 25.3333 181.895 27.296V48H175.623V27.296C175.623 24.864 175.09 23.0293 174.023 21.792C172.978 20.5547 171.442 19.936 169.415 19.936C168.519 19.936 167.666 20.096 166.855 20.416C166.045 20.7147 165.33 21.1733 164.711 21.792C164.114 22.4107 163.634 23.1787 163.271 24.096C162.93 25.0133 162.759 26.08 162.759 27.296V48H156.487V27.296C156.487 24.7787 155.986 22.9227 154.983 21.728C153.981 20.5333 152.509 19.936 150.567 19.936C149.223 19.936 147.975 20.288 146.823 20.992C145.671 21.696 144.615 22.656 143.655 23.872V48H137.415ZM207.762 33.568C205.224 33.6533 203.069 33.856 201.298 34.176C199.528 34.4747 198.088 34.88 196.978 35.392C195.869 35.904 195.069 36.512 194.578 37.216C194.088 37.8987 193.842 38.6667 193.842 39.52C193.842 40.3307 193.97 41.0347 194.226 41.632C194.504 42.208 194.866 42.688 195.314 43.072C195.784 43.4347 196.328 43.7013 196.946 43.872C197.565 44.0427 198.237 44.128 198.962 44.128C199.922 44.128 200.797 44.032 201.586 43.84C202.397 43.648 203.154 43.3813 203.858 43.04C204.562 42.6773 205.234 42.24 205.874 41.728C206.514 41.216 207.144 40.6293 207.762 39.968V33.568ZM189.458 20.032C191.272 18.304 193.234 17.0133 195.346 16.16C197.48 15.3067 199.816 14.88 202.354 14.88C204.21 14.88 205.853 15.1893 207.282 15.808C208.712 16.4053 209.917 17.248 210.898 18.336C211.88 19.424 212.616 20.7253 213.106 22.24C213.618 23.7547 213.874 25.4293 213.874 27.264V48H211.09C210.472 48 210.002 47.904 209.682 47.712C209.362 47.4987 209.106 47.1147 208.914 46.56L208.242 43.712C207.41 44.48 206.589 45.1627 205.778 45.76C204.968 46.336 204.114 46.8373 203.218 47.264C202.344 47.6693 201.405 47.9787 200.402 48.192C199.4 48.4053 198.29 48.512 197.074 48.512C195.794 48.512 194.589 48.3413 193.458 48C192.349 47.6373 191.378 47.0933 190.546 46.368C189.714 45.6427 189.053 44.736 188.562 43.648C188.093 42.56 187.858 41.2907 187.858 39.84C187.858 38.56 188.2 37.3333 188.882 36.16C189.586 34.9653 190.717 33.8987 192.274 32.96C193.853 32.0213 195.901 31.2533 198.418 30.656C200.957 30.0587 204.072 29.7173 207.762 29.632V27.264C207.762 24.8107 207.24 22.976 206.194 21.76C205.149 20.544 203.613 19.936 201.586 19.936C200.221 19.936 199.069 20.1067 198.13 20.448C197.213 20.7893 196.413 21.1733 195.73 21.6C195.069 22.0053 194.482 22.3787 193.97 22.72C193.48 23.0613 192.968 23.232 192.434 23.232C192.008 23.232 191.634 23.1147 191.314 22.88C191.016 22.6453 190.77 22.368 190.578 22.048L189.458 20.032ZM259.375 23.36C258.351 22.016 257.242 21.0773 256.047 20.544C254.874 20.0107 253.551 19.744 252.079 19.744C249.221 19.744 247.002 20.7787 245.423 22.848C243.866 24.896 243.087 27.8933 243.087 31.84C243.087 33.9093 243.258 35.68 243.599 37.152C243.962 38.6027 244.474 39.7973 245.135 40.736C245.818 41.6533 246.65 42.336 247.631 42.784C248.613 43.2107 249.722 43.424 250.959 43.424C252.773 43.424 254.341 43.0187 255.663 42.208C256.986 41.3973 258.223 40.256 259.375 38.784V23.36ZM265.647 0.767998V48H261.871C260.997 48 260.453 47.584 260.239 46.752L259.695 43.008C258.309 44.6507 256.73 45.9733 254.959 46.976C253.21 47.9573 251.183 48.448 248.879 48.448C247.023 48.448 245.338 48.0853 243.823 47.36C242.33 46.6347 241.05 45.5787 239.983 44.192C238.917 42.784 238.095 41.0453 237.519 38.976C236.943 36.9067 236.655 34.528 236.655 31.84C236.655 29.4293 236.975 27.1893 237.615 25.12C238.255 23.0507 239.183 21.2587 240.399 19.744C241.615 18.2293 243.087 17.0453 244.815 16.192C246.543 15.3173 248.495 14.88 250.671 14.88C252.634 14.88 254.298 15.2 255.663 15.84C257.05 16.48 258.287 17.3867 259.375 18.56V0.767998H265.647ZM295.889 28.128C295.889 26.8907 295.707 25.7493 295.345 24.704C295.003 23.6587 294.491 22.752 293.809 21.984C293.126 21.216 292.294 20.6187 291.313 20.192C290.331 19.7653 289.201 19.552 287.921 19.552C285.297 19.552 283.227 20.3093 281.713 21.824C280.219 23.3387 279.27 25.44 278.865 28.128H295.889ZM301.041 43.36C300.273 44.256 299.387 45.0347 298.385 45.696C297.382 46.336 296.315 46.8587 295.185 47.264C294.054 47.6693 292.881 47.968 291.665 48.16C290.47 48.352 289.286 48.448 288.113 48.448C285.873 48.448 283.793 48.0747 281.873 47.328C279.974 46.56 278.321 45.4507 276.913 44C275.526 42.528 274.438 40.7147 273.649 38.56C272.881 36.384 272.497 33.888 272.497 31.072C272.497 28.8107 272.849 26.7093 273.553 24.768C274.257 22.8053 275.259 21.0987 276.561 19.648C277.883 18.1973 279.494 17.056 281.393 16.224C283.291 15.392 285.425 14.976 287.793 14.976C289.777 14.976 291.601 15.3067 293.265 15.968C294.95 16.608 296.401 17.5467 297.617 18.784C298.833 20.0213 299.782 21.5467 300.465 23.36C301.169 25.1733 301.521 27.2427 301.521 29.568C301.521 30.528 301.414 31.1787 301.201 31.52C300.987 31.84 300.593 32 300.017 32H278.705C278.769 33.9413 279.046 35.6373 279.537 37.088C280.027 38.5173 280.699 39.712 281.553 40.672C282.427 41.632 283.462 42.3467 284.657 42.816C285.851 43.2853 287.185 43.52 288.657 43.52C290.043 43.52 291.238 43.36 292.241 43.04C293.265 42.72 294.139 42.3787 294.865 42.016C295.611 41.632 296.23 41.28 296.721 40.96C297.233 40.64 297.681 40.48 298.065 40.48C298.577 40.48 298.971 40.672 299.249 41.056L301.041 43.36ZM332.543 48H325.695V2.048H332.543V48ZM347.959 20C348.663 19.2533 349.399 18.5707 350.167 17.952C350.935 17.3333 351.745 16.8107 352.599 16.384C353.473 15.936 354.401 15.5947 355.383 15.36C356.385 15.104 357.452 14.976 358.583 14.976C360.375 14.976 361.943 15.2747 363.287 15.872C364.652 16.4693 365.793 17.312 366.711 18.4C367.628 19.4667 368.321 20.7573 368.791 22.272C369.26 23.7867 369.495 25.4613 369.495 27.296V48H363.223V27.296C363.223 24.9707 362.689 23.168 361.623 21.888C360.556 20.5867 358.924 19.936 356.727 19.936C355.127 19.936 353.623 20.32 352.215 21.088C350.828 21.8347 349.537 22.8587 348.343 24.16V48H342.103V15.488H345.847C346.721 15.488 347.265 15.904 347.479 16.736L347.959 20ZM398.875 23.36C397.851 22.016 396.742 21.0773 395.547 20.544C394.374 20.0107 393.051 19.744 391.579 19.744C388.721 19.744 386.502 20.7787 384.923 22.848C383.366 24.896 382.587 27.8933 382.587 31.84C382.587 33.9093 382.758 35.68 383.099 37.152C383.462 38.6027 383.974 39.7973 384.635 40.736C385.318 41.6533 386.15 42.336 387.131 42.784C388.113 43.2107 389.222 43.424 390.459 43.424C392.273 43.424 393.841 43.0187 395.163 42.208C396.486 41.3973 397.723 40.256 398.875 38.784V23.36ZM405.147 0.767998V48H401.371C400.497 48 399.953 47.584 399.739 46.752L399.195 43.008C397.809 44.6507 396.23 45.9733 394.459 46.976C392.71 47.9573 390.683 48.448 388.379 48.448C386.523 48.448 384.838 48.0853 383.323 47.36C381.83 46.6347 380.55 45.5787 379.483 44.192C378.417 42.784 377.595 41.0453 377.019 38.976C376.443 36.9067 376.155 34.528 376.155 31.84C376.155 29.4293 376.475 27.1893 377.115 25.12C377.755 23.0507 378.683 21.2587 379.899 19.744C381.115 18.2293 382.587 17.0453 384.315 16.192C386.043 15.3173 387.995 14.88 390.171 14.88C392.134 14.88 393.798 15.2 395.163 15.84C396.55 16.48 397.787 17.3867 398.875 18.56V0.767998H405.147ZM420.381 15.488V48H414.141V15.488H420.381ZM421.565 5.44C421.565 6.016 421.447 6.57066 421.213 7.104C420.978 7.616 420.658 8.07467 420.253 8.48C419.869 8.864 419.41 9.17333 418.877 9.408C418.343 9.62133 417.789 9.728 417.213 9.728C416.637 9.728 416.093 9.62133 415.581 9.408C415.069 9.17333 414.61 8.864 414.205 8.48C413.821 8.07467 413.511 7.616 413.277 7.104C413.063 6.57066 412.957 6.016 412.957 5.44C412.957 4.84267 413.063 4.288 413.277 3.776C413.511 3.24266 413.821 2.784 414.205 2.4C414.61 1.99466 415.069 1.68533 415.581 1.472C416.093 1.23733 416.637 1.12 417.213 1.12C417.789 1.12 418.343 1.23733 418.877 1.472C419.41 1.68533 419.869 1.99466 420.253 2.4C420.658 2.784 420.978 3.24266 421.213 3.776C421.447 4.288 421.565 4.84267 421.565 5.44ZM452.199 21.568C452.007 21.8027 451.815 21.9947 451.623 22.144C451.453 22.272 451.197 22.336 450.855 22.336C450.514 22.336 450.151 22.208 449.767 21.952C449.405 21.6747 448.935 21.3867 448.359 21.088C447.805 20.768 447.122 20.48 446.311 20.224C445.522 19.9467 444.541 19.808 443.367 19.808C441.831 19.808 440.477 20.0853 439.303 20.64C438.13 21.1947 437.149 21.984 436.359 23.008C435.591 24.032 435.005 25.28 434.599 26.752C434.194 28.224 433.991 29.8773 433.991 31.712C433.991 33.6107 434.205 35.3067 434.631 36.8C435.058 38.272 435.666 39.52 436.455 40.544C437.245 41.5467 438.205 42.3147 439.335 42.848C440.466 43.36 441.725 43.616 443.111 43.616C444.455 43.616 445.565 43.456 446.439 43.136C447.314 42.7947 448.039 42.432 448.615 42.048C449.191 41.664 449.671 41.312 450.055 40.992C450.439 40.6507 450.834 40.48 451.239 40.48C451.751 40.48 452.146 40.672 452.423 41.056L454.215 43.36C453.469 44.2773 452.626 45.056 451.687 45.696C450.77 46.336 449.789 46.8587 448.743 47.264C447.698 47.6693 446.599 47.968 445.447 48.16C444.317 48.352 443.165 48.448 441.991 48.448C439.965 48.448 438.066 48.0747 436.295 47.328C434.546 46.5813 433.021 45.4933 431.719 44.064C430.439 42.6347 429.426 40.8853 428.679 38.816C427.933 36.7253 427.559 34.3573 427.559 31.712C427.559 29.3013 427.89 27.072 428.551 25.024C429.234 22.976 430.226 21.216 431.527 19.744C432.85 18.2507 434.471 17.088 436.391 16.256C438.311 15.4027 440.509 14.976 442.983 14.976C445.309 14.976 447.357 15.3493 449.127 16.096C450.898 16.8427 452.477 17.8987 453.863 19.264L452.199 21.568ZM477.512 33.568C474.974 33.6533 472.819 33.856 471.048 34.176C469.278 34.4747 467.838 34.88 466.728 35.392C465.619 35.904 464.819 36.512 464.328 37.216C463.838 37.8987 463.592 38.6667 463.592 39.52C463.592 40.3307 463.72 41.0347 463.976 41.632C464.254 42.208 464.616 42.688 465.064 43.072C465.534 43.4347 466.078 43.7013 466.696 43.872C467.315 44.0427 467.987 44.128 468.712 44.128C469.672 44.128 470.547 44.032 471.336 43.84C472.147 43.648 472.904 43.3813 473.608 43.04C474.312 42.6773 474.984 42.24 475.624 41.728C476.264 41.216 476.894 40.6293 477.512 39.968V33.568ZM459.208 20.032C461.022 18.304 462.984 17.0133 465.096 16.16C467.23 15.3067 469.566 14.88 472.104 14.88C473.96 14.88 475.603 15.1893 477.032 15.808C478.462 16.4053 479.667 17.248 480.648 18.336C481.63 19.424 482.366 20.7253 482.856 22.24C483.368 23.7547 483.624 25.4293 483.624 27.264V48H480.84C480.222 48 479.752 47.904 479.432 47.712C479.112 47.4987 478.856 47.1147 478.664 46.56L477.992 43.712C477.16 44.48 476.339 45.1627 475.528 45.76C474.718 46.336 473.864 46.8373 472.968 47.264C472.094 47.6693 471.155 47.9787 470.152 48.192C469.15 48.4053 468.04 48.512 466.824 48.512C465.544 48.512 464.339 48.3413 463.208 48C462.099 47.6373 461.128 47.0933 460.296 46.368C459.464 45.6427 458.803 44.736 458.312 43.648C457.843 42.56 457.608 41.2907 457.608 39.84C457.608 38.56 457.95 37.3333 458.632 36.16C459.336 34.9653 460.467 33.8987 462.024 32.96C463.603 32.0213 465.651 31.2533 468.168 30.656C470.707 30.0587 473.822 29.7173 477.512 29.632V27.264C477.512 24.8107 476.99 22.976 475.944 21.76C474.899 20.544 473.363 19.936 471.336 19.936C469.971 19.936 468.819 20.1067 467.88 20.448C466.963 20.7893 466.163 21.1733 465.48 21.6C464.819 22.0053 464.232 22.3787 463.72 22.72C463.23 23.0613 462.718 23.232 462.184 23.232C461.758 23.232 461.384 23.1147 461.064 22.88C460.766 22.6453 460.52 22.368 460.328 22.048L459.208 20.032ZM512.938 23.36C511.914 22.016 510.804 21.0773 509.61 20.544C508.436 20.0107 507.114 19.744 505.642 19.744C502.783 19.744 500.564 20.7787 498.986 22.848C497.428 24.896 496.65 27.8933 496.65 31.84C496.65 33.9093 496.82 35.68 497.162 37.152C497.524 38.6027 498.036 39.7973 498.698 40.736C499.38 41.6533 500.212 42.336 501.194 42.784C502.175 43.2107 503.284 43.424 504.522 43.424C506.335 43.424 507.903 43.0187 509.226 42.208C510.548 41.3973 511.786 40.256 512.938 38.784V23.36ZM519.21 0.767998V48H515.434C514.559 48 514.015 47.584 513.802 46.752L513.258 43.008C511.871 44.6507 510.292 45.9733 508.522 46.976C506.772 47.9573 504.746 48.448 502.442 48.448C500.586 48.448 498.9 48.0853 497.386 47.36C495.892 46.6347 494.612 45.5787 493.546 44.192C492.479 42.784 491.658 41.0453 491.082 38.976C490.506 36.9067 490.218 34.528 490.218 31.84C490.218 29.4293 490.538 27.1893 491.178 25.12C491.818 23.0507 492.746 21.2587 493.962 19.744C495.178 18.2293 496.65 17.0453 498.378 16.192C500.106 15.3173 502.058 14.88 504.234 14.88C506.196 14.88 507.86 15.2 509.226 15.84C510.612 16.48 511.85 17.3867 512.938 18.56V0.767998H519.21ZM541.771 14.976C544.161 14.976 546.315 15.3707 548.235 16.16C550.177 16.928 551.819 18.048 553.163 19.52C554.529 20.9707 555.574 22.7307 556.299 24.8C557.025 26.848 557.387 29.152 557.387 31.712C557.387 34.272 557.025 36.5867 556.299 38.656C555.574 40.7253 554.529 42.4853 553.163 43.936C551.819 45.3867 550.177 46.5067 548.235 47.296C546.315 48.064 544.161 48.448 541.771 48.448C539.361 48.448 537.185 48.064 535.243 47.296C533.323 46.5067 531.681 45.3867 530.315 43.936C528.95 42.4853 527.894 40.7253 527.147 38.656C526.422 36.5867 526.059 34.272 526.059 31.712C526.059 29.152 526.422 26.848 527.147 24.8C527.894 22.7307 528.95 20.9707 530.315 19.52C531.681 18.048 533.323 16.928 535.243 16.16C537.185 15.3707 539.361 14.976 541.771 14.976ZM541.771 43.584C544.843 43.584 547.137 42.5493 548.651 40.48C550.166 38.4107 550.923 35.4987 550.923 31.744C550.923 27.9893 550.166 25.0773 548.651 23.008C547.137 20.9173 544.843 19.872 541.771 19.872C538.657 19.872 536.331 20.9173 534.795 23.008C533.281 25.0773 532.523 27.9893 532.523 31.744C532.523 35.4987 533.281 38.4107 534.795 40.48C536.331 42.5493 538.657 43.584 541.771 43.584ZM570.241 21.728C571.286 19.5947 572.545 17.92 574.017 16.704C575.489 15.488 577.259 14.88 579.329 14.88C580.033 14.88 580.694 14.9653 581.313 15.136C581.953 15.2853 582.507 15.52 582.977 15.84L582.561 20.544C582.411 21.12 582.059 21.408 581.505 21.408C581.206 21.408 580.758 21.3547 580.161 21.248C579.563 21.12 578.923 21.056 578.241 21.056C577.238 21.056 576.353 21.2053 575.585 21.504C574.817 21.7813 574.123 22.208 573.505 22.784C572.907 23.3387 572.374 24.032 571.905 24.864C571.435 25.6747 570.998 26.6027 570.593 27.648V48H564.353V15.488H567.937C568.619 15.488 569.078 15.616 569.313 15.872C569.569 16.1067 569.75 16.5333 569.857 17.152L570.241 21.728ZM608.139 28.128C608.139 26.8907 607.957 25.7493 607.595 24.704C607.253 23.6587 606.741 22.752 606.059 21.984C605.376 21.216 604.544 20.6187 603.563 20.192C602.581 19.7653 601.451 19.552 600.171 19.552C597.547 19.552 595.477 20.3093 593.963 21.824C592.469 23.3387 591.52 25.44 591.115 28.128H608.139ZM613.291 43.36C612.523 44.256 611.637 45.0347 610.635 45.696C609.632 46.336 608.565 46.8587 607.435 47.264C606.304 47.6693 605.131 47.968 603.915 48.16C602.72 48.352 601.536 48.448 600.363 48.448C598.123 48.448 596.043 48.0747 594.123 47.328C592.224 46.56 590.571 45.4507 589.163 44C587.776 42.528 586.688 40.7147 585.899 38.56C585.131 36.384 584.747 33.888 584.747 31.072C584.747 28.8107 585.099 26.7093 585.803 24.768C586.507 22.8053 587.509 21.0987 588.811 19.648C590.133 18.1973 591.744 17.056 593.643 16.224C595.541 15.392 597.675 14.976 600.043 14.976C602.027 14.976 603.851 15.3067 605.515 15.968C607.2 16.608 608.651 17.5467 609.867 18.784C611.083 20.0213 612.032 21.5467 612.715 23.36C613.419 25.1733 613.771 27.2427 613.771 29.568C613.771 30.528 613.664 31.1787 613.451 31.52C613.237 31.84 612.843 32 612.267 32H590.955C591.019 33.9413 591.296 35.6373 591.787 37.088C592.277 38.5173 592.949 39.712 593.803 40.672C594.677 41.632 595.712 42.3467 596.907 42.816C598.101 43.2853 599.435 43.52 600.907 43.52C602.293 43.52 603.488 43.36 604.491 43.04C605.515 42.72 606.389 42.3787 607.115 42.016C607.861 41.632 608.48 41.28 608.971 40.96C609.483 40.64 609.931 40.48 610.315 40.48C610.827 40.48 611.221 40.672 611.499 41.056L613.291 43.36ZM639.646 21.088C639.475 21.3653 639.294 21.568 639.102 21.696C638.91 21.8027 638.664 21.856 638.366 21.856C638.024 21.856 637.64 21.7387 637.214 21.504C636.808 21.2693 636.307 21.0133 635.71 20.736C635.134 20.4587 634.451 20.2027 633.662 19.968C632.872 19.7333 631.934 19.616 630.846 19.616C629.95 19.616 629.128 19.7333 628.382 19.968C627.656 20.1813 627.038 20.4907 626.526 20.896C626.014 21.28 625.619 21.7493 625.342 22.304C625.064 22.8373 624.926 23.4133 624.926 24.032C624.926 24.8427 625.16 25.5147 625.63 26.048C626.12 26.5813 626.75 27.04 627.518 27.424C628.307 27.808 629.192 28.16 630.174 28.48C631.176 28.7787 632.19 29.0987 633.214 29.44C634.259 29.7813 635.272 30.176 636.254 30.624C637.256 31.0507 638.142 31.5947 638.91 32.256C639.699 32.896 640.328 33.6747 640.798 34.592C641.288 35.5093 641.534 36.6293 641.534 37.952C641.534 39.4667 641.256 40.8747 640.702 42.176C640.168 43.456 639.368 44.5653 638.302 45.504C637.256 46.4427 635.955 47.1787 634.398 47.712C632.84 48.2453 631.059 48.512 629.054 48.512C626.814 48.512 624.744 48.1387 622.846 47.392C620.947 46.6453 619.358 45.696 618.078 44.544L619.55 42.144C619.72 41.8453 619.934 41.6213 620.19 41.472C620.446 41.3013 620.787 41.216 621.214 41.216C621.619 41.216 622.035 41.3653 622.462 41.664C622.888 41.9627 623.4 42.2933 623.998 42.656C624.595 42.9973 625.32 43.3173 626.174 43.616C627.027 43.8933 628.094 44.032 629.374 44.032C630.44 44.032 631.368 43.904 632.158 43.648C632.947 43.3707 633.598 43.008 634.11 42.56C634.643 42.0907 635.038 41.5573 635.294 40.96C635.55 40.3627 635.678 39.7333 635.678 39.072C635.678 38.2187 635.432 37.5147 634.942 36.96C634.472 36.384 633.843 35.8933 633.054 35.488C632.286 35.0827 631.4 34.7307 630.398 34.432C629.395 34.1333 628.371 33.8133 627.326 33.472C626.28 33.1307 625.256 32.736 624.254 32.288C623.251 31.84 622.355 31.2747 621.566 30.592C620.798 29.9093 620.168 29.0773 619.678 28.096C619.208 27.1147 618.974 25.92 618.974 24.512C618.974 23.2533 619.23 22.048 619.742 20.896C620.275 19.744 621.032 18.7307 622.014 17.856C623.016 16.9813 624.243 16.288 625.694 15.776C627.166 15.2427 628.84 14.976 630.718 14.976C632.872 14.976 634.814 15.3173 636.542 16C638.291 16.6827 639.784 17.6213 641.022 18.816L639.646 21.088ZM714.078 2.048V48H708.126V15.296C708.126 14.8053 708.136 14.2827 708.158 13.728C708.2 13.1733 708.243 12.608 708.286 12.032L692.99 40.096C692.456 41.1413 691.635 41.664 690.526 41.664H689.566C688.456 41.664 687.646 41.1413 687.134 40.096L671.55 11.936C671.678 13.1307 671.742 14.2507 671.742 15.296V48H665.758V2.048H670.814C671.411 2.048 671.87 2.112 672.19 2.24C672.531 2.34666 672.851 2.66666 673.15 3.2L688.51 30.72C688.808 31.2747 689.086 31.8613 689.342 32.48C689.598 33.0987 689.843 33.7173 690.078 34.336C690.526 33.0773 691.048 31.8613 691.646 30.688L706.718 3.2C706.995 2.66666 707.294 2.34666 707.614 2.24C707.955 2.112 708.424 2.048 709.022 2.048H714.078ZM750.643 15.488V48H746.899C746.045 48 745.491 47.584 745.235 46.752L744.787 43.488C744.083 44.2347 743.347 44.9173 742.579 45.536C741.811 46.1547 740.989 46.688 740.115 47.136C739.24 47.5627 738.312 47.8933 737.331 48.128C736.349 48.384 735.293 48.512 734.163 48.512C732.371 48.512 730.792 48.2133 729.427 47.616C728.083 47.0187 726.952 46.1867 726.035 45.12C725.117 44.032 724.424 42.7307 723.955 41.216C723.485 39.7013 723.251 38.0267 723.251 36.192V15.488H729.523V36.192C729.523 38.5173 730.056 40.3307 731.123 41.632C732.189 42.912 733.821 43.552 736.019 43.552C737.619 43.552 739.112 43.1787 740.499 42.432C741.885 41.664 743.187 40.6187 744.403 39.296V15.488H750.643ZM765.209 20C765.913 19.2533 766.649 18.5707 767.417 17.952C768.185 17.3333 768.995 16.8107 769.849 16.384C770.723 15.936 771.651 15.5947 772.633 15.36C773.635 15.104 774.702 14.976 775.833 14.976C777.625 14.976 779.193 15.2747 780.537 15.872C781.902 16.4693 783.043 17.312 783.961 18.4C784.878 19.4667 785.571 20.7573 786.041 22.272C786.51 23.7867 786.745 25.4613 786.745 27.296V48H780.473V27.296C780.473 24.9707 779.939 23.168 778.873 21.888C777.806 20.5867 776.174 19.936 773.977 19.936C772.377 19.936 770.873 20.32 769.465 21.088C768.078 21.8347 766.787 22.8587 765.593 24.16V48H759.353V15.488H763.097C763.971 15.488 764.515 15.904 764.729 16.736L765.209 20ZM801.693 15.488V48H795.453V15.488H801.693ZM802.877 5.44C802.877 6.016 802.76 6.57066 802.525 7.104C802.291 7.616 801.971 8.07467 801.565 8.48C801.181 8.864 800.723 9.17333 800.189 9.408C799.656 9.62133 799.101 9.728 798.525 9.728C797.949 9.728 797.405 9.62133 796.893 9.408C796.381 9.17333 795.923 8.864 795.517 8.48C795.133 8.07467 794.824 7.616 794.589 7.104C794.376 6.57066 794.269 6.016 794.269 5.44C794.269 4.84267 794.376 4.288 794.589 3.776C794.824 3.24266 795.133 2.784 795.517 2.4C795.923 1.99466 796.381 1.68533 796.893 1.472C797.405 1.23733 797.949 1.12 798.525 1.12C799.101 1.12 799.656 1.23733 800.189 1.472C800.723 1.68533 801.181 1.99466 801.565 2.4C801.971 2.784 802.291 3.24266 802.525 3.776C802.76 4.288 802.877 4.84267 802.877 5.44ZM833.512 21.568C833.32 21.8027 833.128 21.9947 832.936 22.144C832.765 22.272 832.509 22.336 832.168 22.336C831.826 22.336 831.464 22.208 831.08 21.952C830.717 21.6747 830.248 21.3867 829.672 21.088C829.117 20.768 828.434 20.48 827.624 20.224C826.834 19.9467 825.853 19.808 824.68 19.808C823.144 19.808 821.789 20.0853 820.616 20.64C819.442 21.1947 818.461 21.984 817.672 23.008C816.904 24.032 816.317 25.28 815.912 26.752C815.506 28.224 815.304 29.8773 815.304 31.712C815.304 33.6107 815.517 35.3067 815.944 36.8C816.37 38.272 816.978 39.52 817.768 40.544C818.557 41.5467 819.517 42.3147 820.648 42.848C821.778 43.36 823.037 43.616 824.424 43.616C825.768 43.616 826.877 43.456 827.752 43.136C828.626 42.7947 829.352 42.432 829.928 42.048C830.504 41.664 830.984 41.312 831.368 40.992C831.752 40.6507 832.146 40.48 832.552 40.48C833.064 40.48 833.458 40.672 833.736 41.056L835.528 43.36C834.781 44.2773 833.938 45.056 833 45.696C832.082 46.336 831.101 46.8587 830.056 47.264C829.01 47.6693 827.912 47.968 826.76 48.16C825.629 48.352 824.477 48.448 823.304 48.448C821.277 48.448 819.378 48.0747 817.608 47.328C815.858 46.5813 814.333 45.4933 813.032 44.064C811.752 42.6347 810.738 40.8853 809.992 38.816C809.245 36.7253 808.872 34.3573 808.872 31.712C808.872 29.3013 809.202 27.072 809.864 25.024C810.546 22.976 811.538 21.216 812.84 19.744C814.162 18.2507 815.784 17.088 817.704 16.256C819.624 15.4027 821.821 14.976 824.296 14.976C826.621 14.976 828.669 15.3493 830.44 16.096C832.21 16.8427 833.789 17.8987 835.176 19.264L833.512 21.568ZM847.881 15.488V48H841.641V15.488H847.881ZM849.065 5.44C849.065 6.016 848.947 6.57066 848.713 7.104C848.478 7.616 848.158 8.07467 847.753 8.48C847.369 8.864 846.91 9.17333 846.377 9.408C845.843 9.62133 845.289 9.728 844.713 9.728C844.137 9.728 843.593 9.62133 843.081 9.408C842.569 9.17333 842.11 8.864 841.705 8.48C841.321 8.07467 841.011 7.616 840.777 7.104C840.563 6.57066 840.457 6.016 840.457 5.44C840.457 4.84267 840.563 4.288 840.777 3.776C841.011 3.24266 841.321 2.784 841.705 2.4C842.11 1.99466 842.569 1.68533 843.081 1.472C843.593 1.23733 844.137 1.12 844.713 1.12C845.289 1.12 845.843 1.23733 846.377 1.472C846.91 1.68533 847.369 1.99466 847.753 2.4C848.158 2.784 848.478 3.24266 848.713 3.776C848.947 4.288 849.065 4.84267 849.065 5.44ZM863.155 40C864.179 41.344 865.278 42.2827 866.451 42.816C867.646 43.3493 868.979 43.616 870.451 43.616C873.31 43.616 875.518 42.592 877.075 40.544C878.654 38.4747 879.443 35.4667 879.443 31.52C879.443 29.4507 879.262 27.6907 878.899 26.24C878.558 24.768 878.046 23.5733 877.363 22.656C876.702 21.7173 875.881 21.0347 874.899 20.608C873.918 20.16 872.809 19.936 871.571 19.936C869.758 19.936 868.179 20.3413 866.835 21.152C865.513 21.9627 864.286 23.1147 863.155 24.608V40ZM862.835 20.352C863.518 19.5413 864.243 18.8053 865.011 18.144C865.801 17.4613 866.643 16.8853 867.539 16.416C868.435 15.9253 869.385 15.552 870.387 15.296C871.411 15.0187 872.499 14.88 873.651 14.88C875.507 14.88 877.182 15.2427 878.675 15.968C880.19 16.6933 881.481 17.76 882.547 19.168C883.614 20.576 884.435 22.3147 885.011 24.384C885.609 26.4533 885.907 28.832 885.907 31.52C885.907 33.9307 885.577 36.1707 884.915 38.24C884.275 40.288 883.347 42.0693 882.131 43.584C880.937 45.0987 879.465 46.2933 877.715 47.168C875.987 48.0213 874.035 48.448 871.859 48.448C869.918 48.448 868.254 48.128 866.867 47.488C865.481 46.848 864.243 45.952 863.155 44.8V58.912H856.915V15.488H860.659C861.534 15.488 862.078 15.904 862.291 16.736L862.835 20.352ZM910.387 33.568C907.849 33.6533 905.694 33.856 903.923 34.176C902.153 34.4747 900.713 34.88 899.603 35.392C898.494 35.904 897.694 36.512 897.203 37.216C896.713 37.8987 896.467 38.6667 896.467 39.52C896.467 40.3307 896.595 41.0347 896.851 41.632C897.129 42.208 897.491 42.688 897.939 43.072C898.409 43.4347 898.953 43.7013 899.571 43.872C900.19 44.0427 900.862 44.128 901.587 44.128C902.547 44.128 903.422 44.032 904.211 43.84C905.022 43.648 905.779 43.3813 906.483 43.04C907.187 42.6773 907.859 42.24 908.499 41.728C909.139 41.216 909.769 40.6293 910.387 39.968V33.568ZM892.083 20.032C893.897 18.304 895.859 17.0133 897.971 16.16C900.105 15.3067 902.441 14.88 904.979 14.88C906.835 14.88 908.478 15.1893 909.907 15.808C911.337 16.4053 912.542 17.248 913.523 18.336C914.505 19.424 915.241 20.7253 915.731 22.24C916.243 23.7547 916.499 25.4293 916.499 27.264V48H913.715C913.097 48 912.627 47.904 912.307 47.712C911.987 47.4987 911.731 47.1147 911.539 46.56L910.867 43.712C910.035 44.48 909.214 45.1627 908.403 45.76C907.593 46.336 906.739 46.8373 905.843 47.264C904.969 47.6693 904.03 47.9787 903.027 48.192C902.025 48.4053 900.915 48.512 899.699 48.512C898.419 48.512 897.214 48.3413 896.083 48C894.974 47.6373 894.003 47.0933 893.171 46.368C892.339 45.6427 891.678 44.736 891.187 43.648C890.718 42.56 890.483 41.2907 890.483 39.84C890.483 38.56 890.825 37.3333 891.507 36.16C892.211 34.9653 893.342 33.8987 894.899 32.96C896.478 32.0213 898.526 31.2533 901.043 30.656C903.582 30.0587 906.697 29.7173 910.387 29.632V27.264C910.387 24.8107 909.865 22.976 908.819 21.76C907.774 20.544 906.238 19.936 904.211 19.936C902.846 19.936 901.694 20.1067 900.755 20.448C899.838 20.7893 899.038 21.1733 898.355 21.6C897.694 22.0053 897.107 22.3787 896.595 22.72C896.105 23.0613 895.593 23.232 895.059 23.232C894.633 23.232 894.259 23.1147 893.939 22.88C893.641 22.6453 893.395 22.368 893.203 22.048L892.083 20.032ZM931.253 0.767998V48H924.981V0.767998H931.253ZM977.313 23.36C976.289 22.016 975.179 21.0773 973.985 20.544C972.811 20.0107 971.489 19.744 970.017 19.744C967.158 19.744 964.939 20.7787 963.361 22.848C961.803 24.896 961.025 27.8933 961.025 31.84C961.025 33.9093 961.195 35.68 961.537 37.152C961.899 38.6027 962.411 39.7973 963.073 40.736C963.755 41.6533 964.587 42.336 965.569 42.784C966.55 43.2107 967.659 43.424 968.897 43.424C970.71 43.424 972.278 43.0187 973.601 42.208C974.923 41.3973 976.161 40.256 977.313 38.784V23.36ZM983.585 0.767998V48H979.809C978.934 48 978.39 47.584 978.177 46.752L977.633 43.008C976.246 44.6507 974.667 45.9733 972.897 46.976C971.147 47.9573 969.121 48.448 966.817 48.448C964.961 48.448 963.275 48.0853 961.761 47.36C960.267 46.6347 958.987 45.5787 957.921 44.192C956.854 42.784 956.033 41.0453 955.457 38.976C954.881 36.9067 954.593 34.528 954.593 31.84C954.593 29.4293 954.913 27.1893 955.553 25.12C956.193 23.0507 957.121 21.2587 958.337 19.744C959.553 18.2293 961.025 17.0453 962.753 16.192C964.481 15.3173 966.433 14.88 968.609 14.88C970.571 14.88 972.235 15.2 973.601 15.84C974.987 16.48 976.225 17.3867 977.313 18.56V0.767998H983.585ZM1013.83 28.128C1013.83 26.8907 1013.64 25.7493 1013.28 24.704C1012.94 23.6587 1012.43 22.752 1011.75 21.984C1011.06 21.216 1010.23 20.6187 1009.25 20.192C1008.27 19.7653 1007.14 19.552 1005.86 19.552C1003.23 19.552 1001.16 20.3093 999.65 21.824C998.157 23.3387 997.208 25.44 996.802 28.128H1013.83ZM1018.98 43.36C1018.21 44.256 1017.32 45.0347 1016.32 45.696C1015.32 46.336 1014.25 46.8587 1013.12 47.264C1011.99 47.6693 1010.82 47.968 1009.6 48.16C1008.41 48.352 1007.22 48.448 1006.05 48.448C1003.81 48.448 1001.73 48.0747 999.81 47.328C997.912 46.56 996.258 45.4507 994.85 44C993.464 42.528 992.376 40.7147 991.586 38.56C990.818 36.384 990.434 33.888 990.434 31.072C990.434 28.8107 990.786 26.7093 991.49 24.768C992.194 22.8053 993.197 21.0987 994.498 19.648C995.821 18.1973 997.432 17.056 999.33 16.224C1001.23 15.392 1003.36 14.976 1005.73 14.976C1007.71 14.976 1009.54 15.3067 1011.2 15.968C1012.89 16.608 1014.34 17.5467 1015.55 18.784C1016.77 20.0213 1017.72 21.5467 1018.4 23.36C1019.11 25.1733 1019.46 27.2427 1019.46 29.568C1019.46 30.528 1019.35 31.1787 1019.14 31.52C1018.92 31.84 1018.53 32 1017.95 32H996.642C996.706 33.9413 996.984 35.6373 997.474 37.088C997.965 38.5173 998.637 39.712 999.49 40.672C1000.36 41.632 1001.4 42.3467 1002.59 42.816C1003.79 43.2853 1005.12 43.52 1006.59 43.52C1007.98 43.52 1009.18 43.36 1010.18 43.04C1011.2 42.72 1012.08 42.3787 1012.8 42.016C1013.55 41.632 1014.17 41.28 1014.66 40.96C1015.17 40.64 1015.62 40.48 1016 40.48C1016.51 40.48 1016.91 40.672 1017.19 41.056L1018.98 43.36ZM283.885 115.144C284.269 115.144 284.6 115.293 284.877 115.592L287.565 118.536C285.688 120.755 283.394 122.472 280.685 123.688C277.997 124.904 274.754 125.512 270.957 125.512C267.629 125.512 264.61 124.936 261.901 123.784C259.213 122.632 256.909 121.021 254.989 118.952C253.09 116.883 251.618 114.408 250.573 111.528C249.528 108.648 249.005 105.48 249.005 102.024C249.005 98.568 249.549 95.4 250.637 92.52C251.746 89.64 253.293 87.1653 255.277 85.096C257.261 83.0267 259.629 81.416 262.381 80.264C265.154 79.112 268.216 78.536 271.565 78.536C274.829 78.536 277.73 79.0693 280.269 80.136C282.808 81.2027 285.016 82.6213 286.893 84.392L284.653 87.56C284.504 87.7947 284.312 87.9867 284.077 88.136C283.864 88.2853 283.576 88.36 283.213 88.36C282.808 88.36 282.328 88.1573 281.773 87.752C281.24 87.3467 280.525 86.8987 279.629 86.408C278.754 85.896 277.666 85.4373 276.365 85.032C275.064 84.6267 273.442 84.424 271.501 84.424C269.218 84.424 267.128 84.8293 265.229 85.64C263.33 86.4293 261.688 87.5813 260.301 89.096C258.936 90.5893 257.869 92.4347 257.101 94.632C256.354 96.808 255.981 99.272 255.981 102.024C255.981 104.819 256.376 107.304 257.165 109.48C257.954 111.656 259.042 113.501 260.429 115.016C261.816 116.531 263.448 117.683 265.325 118.472C267.202 119.261 269.229 119.656 271.405 119.656C272.728 119.656 273.912 119.581 274.957 119.432C276.024 119.261 276.994 119.016 277.869 118.696C278.765 118.376 279.608 117.971 280.397 117.48C281.186 116.968 281.965 116.36 282.733 115.656C282.904 115.507 283.085 115.389 283.277 115.304C283.469 115.197 283.672 115.144 283.885 115.144ZM310.606 110.568C308.067 110.653 305.913 110.856 304.142 111.176C302.371 111.475 300.931 111.88 299.822 112.392C298.713 112.904 297.913 113.512 297.422 114.216C296.931 114.899 296.686 115.667 296.686 116.52C296.686 117.331 296.814 118.035 297.07 118.632C297.347 119.208 297.71 119.688 298.158 120.072C298.627 120.435 299.171 120.701 299.79 120.872C300.409 121.043 301.081 121.128 301.806 121.128C302.766 121.128 303.641 121.032 304.43 120.84C305.241 120.648 305.998 120.381 306.702 120.04C307.406 119.677 308.078 119.24 308.718 118.728C309.358 118.216 309.987 117.629 310.606 116.968V110.568ZM292.302 97.032C294.115 95.304 296.078 94.0133 298.19 93.16C300.323 92.3067 302.659 91.88 305.198 91.88C307.054 91.88 308.697 92.1893 310.126 92.808C311.555 93.4053 312.761 94.248 313.742 95.336C314.723 96.424 315.459 97.7253 315.95 99.24C316.462 100.755 316.718 102.429 316.718 104.264V125H313.934C313.315 125 312.846 124.904 312.526 124.712C312.206 124.499 311.95 124.115 311.758 123.56L311.086 120.712C310.254 121.48 309.433 122.163 308.622 122.76C307.811 123.336 306.958 123.837 306.062 124.264C305.187 124.669 304.249 124.979 303.246 125.192C302.243 125.405 301.134 125.512 299.918 125.512C298.638 125.512 297.433 125.341 296.302 125C295.193 124.637 294.222 124.093 293.39 123.368C292.558 122.643 291.897 121.736 291.406 120.648C290.937 119.56 290.702 118.291 290.702 116.84C290.702 115.56 291.043 114.333 291.726 113.16C292.43 111.965 293.561 110.899 295.118 109.96C296.697 109.021 298.745 108.253 301.262 107.656C303.801 107.059 306.915 106.717 310.606 106.632V104.264C310.606 101.811 310.083 99.976 309.038 98.76C307.993 97.544 306.457 96.936 304.43 96.936C303.065 96.936 301.913 97.1067 300.974 97.448C300.057 97.7893 299.257 98.1733 298.574 98.6C297.913 99.0053 297.326 99.3787 296.814 99.72C296.323 100.061 295.811 100.232 295.278 100.232C294.851 100.232 294.478 100.115 294.158 99.88C293.859 99.6453 293.614 99.368 293.422 99.048L292.302 97.032ZM330.928 97C331.632 96.2533 332.368 95.5707 333.136 94.952C333.904 94.3333 334.714 93.8107 335.568 93.384C336.442 92.936 337.37 92.5947 338.352 92.36C339.354 92.104 340.421 91.976 341.552 91.976C343.344 91.976 344.912 92.2747 346.256 92.872C347.621 93.4693 348.762 94.312 349.68 95.4C350.597 96.4667 351.29 97.7573 351.76 99.272C352.229 100.787 352.464 102.461 352.464 104.296V125H346.192V104.296C346.192 101.971 345.658 100.168 344.592 98.888C343.525 97.5867 341.893 96.936 339.696 96.936C338.096 96.936 336.592 97.32 335.184 98.088C333.797 98.8347 332.506 99.8587 331.312 101.16V125H325.072V92.488H328.816C329.69 92.488 330.234 92.904 330.448 93.736L330.928 97ZM378.356 110.568C375.817 110.653 373.663 110.856 371.892 111.176C370.121 111.475 368.681 111.88 367.572 112.392C366.463 112.904 365.663 113.512 365.172 114.216C364.681 114.899 364.436 115.667 364.436 116.52C364.436 117.331 364.564 118.035 364.82 118.632C365.097 119.208 365.46 119.688 365.908 120.072C366.377 120.435 366.921 120.701 367.54 120.872C368.159 121.043 368.831 121.128 369.556 121.128C370.516 121.128 371.391 121.032 372.18 120.84C372.991 120.648 373.748 120.381 374.452 120.04C375.156 119.677 375.828 119.24 376.468 118.728C377.108 118.216 377.737 117.629 378.356 116.968V110.568ZM360.052 97.032C361.865 95.304 363.828 94.0133 365.94 93.16C368.073 92.3067 370.409 91.88 372.948 91.88C374.804 91.88 376.447 92.1893 377.876 92.808C379.305 93.4053 380.511 94.248 381.492 95.336C382.473 96.424 383.209 97.7253 383.7 99.24C384.212 100.755 384.468 102.429 384.468 104.264V125H381.684C381.065 125 380.596 124.904 380.276 124.712C379.956 124.499 379.7 124.115 379.508 123.56L378.836 120.712C378.004 121.48 377.183 122.163 376.372 122.76C375.561 123.336 374.708 123.837 373.812 124.264C372.937 124.669 371.999 124.979 370.996 125.192C369.993 125.405 368.884 125.512 367.668 125.512C366.388 125.512 365.183 125.341 364.052 125C362.943 124.637 361.972 124.093 361.14 123.368C360.308 122.643 359.647 121.736 359.156 120.648C358.687 119.56 358.452 118.291 358.452 116.84C358.452 115.56 358.793 114.333 359.476 113.16C360.18 111.965 361.311 110.899 362.868 109.96C364.447 109.021 366.495 108.253 369.012 107.656C371.551 107.059 374.665 106.717 378.356 106.632V104.264C378.356 101.811 377.833 99.976 376.788 98.76C375.743 97.544 374.207 96.936 372.18 96.936C370.815 96.936 369.663 97.1067 368.724 97.448C367.807 97.7893 367.007 98.1733 366.324 98.6C365.663 99.0053 365.076 99.3787 364.564 99.72C364.073 100.061 363.561 100.232 363.028 100.232C362.601 100.232 362.228 100.115 361.908 99.88C361.609 99.6453 361.364 99.368 361.172 99.048L360.052 97.032ZM410.294 110.568C407.755 110.653 405.6 110.856 403.83 111.176C402.059 111.475 400.619 111.88 399.51 112.392C398.4 112.904 397.6 113.512 397.11 114.216C396.619 114.899 396.374 115.667 396.374 116.52C396.374 117.331 396.502 118.035 396.758 118.632C397.035 119.208 397.398 119.688 397.845 120.072C398.315 120.435 398.859 120.701 399.478 120.872C400.096 121.043 400.768 121.128 401.494 121.128C402.454 121.128 403.328 121.032 404.118 120.84C404.928 120.648 405.686 120.381 406.39 120.04C407.094 119.677 407.766 119.24 408.406 118.728C409.046 118.216 409.675 117.629 410.294 116.968V110.568ZM391.99 97.032C393.803 95.304 395.766 94.0133 397.878 93.16C400.011 92.3067 402.347 91.88 404.885 91.88C406.742 91.88 408.384 92.1893 409.814 92.808C411.243 93.4053 412.448 94.248 413.43 95.336C414.411 96.424 415.147 97.7253 415.638 99.24C416.15 100.755 416.406 102.429 416.406 104.264V125H413.622C413.003 125 412.534 124.904 412.214 124.712C411.894 124.499 411.638 124.115 411.446 123.56L410.774 120.712C409.942 121.48 409.12 122.163 408.31 122.76C407.499 123.336 406.646 123.837 405.75 124.264C404.875 124.669 403.936 124.979 402.934 125.192C401.931 125.405 400.822 125.512 399.606 125.512C398.326 125.512 397.12 125.341 395.99 125C394.88 124.637 393.91 124.093 393.078 123.368C392.246 122.643 391.584 121.736 391.094 120.648C390.624 119.56 390.39 118.291 390.39 116.84C390.39 115.56 390.731 114.333 391.414 113.16C392.118 111.965 393.248 110.899 394.806 109.96C396.384 109.021 398.432 108.253 400.95 107.656C403.488 107.059 406.603 106.717 410.294 106.632V104.264C410.294 101.811 409.771 99.976 408.726 98.76C407.68 97.544 406.144 96.936 404.118 96.936C402.752 96.936 401.6 97.1067 400.662 97.448C399.744 97.7893 398.944 98.1733 398.262 98.6C397.6 99.0053 397.014 99.3787 396.502 99.72C396.011 100.061 395.499 100.232 394.966 100.232C394.539 100.232 394.166 100.115 393.846 99.88C393.547 99.6453 393.302 99.368 393.11 99.048L391.99 97.032ZM407.702 82.312C408.427 82.312 408.982 82.0987 409.366 81.672C409.771 81.2453 409.984 80.5627 410.006 79.624H413.814C413.814 80.6907 413.664 81.6613 413.366 82.536C413.088 83.4107 412.694 84.168 412.182 84.808C411.67 85.4267 411.051 85.9067 410.326 86.248C409.6 86.5893 408.8 86.76 407.926 86.76C407.179 86.76 406.475 86.6107 405.814 86.312C405.174 86.0133 404.566 85.6827 403.99 85.32C403.414 84.9573 402.859 84.6267 402.326 84.328C401.814 84.0293 401.323 83.88 400.854 83.88C400.15 83.88 399.595 84.104 399.19 84.552C398.806 85 398.603 85.6827 398.582 86.6H394.71C394.71 85.5547 394.848 84.5947 395.126 83.72C395.424 82.824 395.84 82.0667 396.374 81.448C396.907 80.8293 397.526 80.3493 398.23 80.008C398.955 79.6453 399.755 79.464 400.63 79.464C401.398 79.464 402.102 79.6133 402.742 79.912C403.403 80.2107 404.022 80.5413 404.597 80.904C405.174 81.2453 405.718 81.5653 406.23 81.864C406.742 82.1627 407.232 82.312 407.702 82.312ZM461.907 100.36C460.883 99.016 459.773 98.0773 458.579 97.544C457.405 97.0107 456.083 96.744 454.611 96.744C451.752 96.744 449.533 97.7787 447.955 99.848C446.397 101.896 445.619 104.893 445.619 108.84C445.619 110.909 445.789 112.68 446.131 114.152C446.493 115.603 447.005 116.797 447.667 117.736C448.349 118.653 449.181 119.336 450.163 119.784C451.144 120.211 452.253 120.424 453.491 120.424C455.304 120.424 456.872 120.019 458.195 119.208C459.517 118.397 460.755 117.256 461.907 115.784V100.36ZM468.179 77.768V125H464.403C463.528 125 462.984 124.584 462.771 123.752L462.227 120.008C460.84 121.651 459.261 122.973 457.491 123.976C455.741 124.957 453.715 125.448 451.411 125.448C449.555 125.448 447.869 125.085 446.355 124.36C444.861 123.635 443.581 122.579 442.515 121.192C441.448 119.784 440.627 118.045 440.051 115.976C439.475 113.907 439.187 111.528 439.187 108.84C439.187 106.429 439.507 104.189 440.147 102.12C440.787 100.051 441.715 98.2587 442.931 96.744C444.147 95.2293 445.619 94.0453 447.347 93.192C449.075 92.3173 451.027 91.88 453.203 91.88C455.165 91.88 456.829 92.2 458.195 92.84C459.581 93.48 460.819 94.3867 461.907 95.56V77.768H468.179ZM490.74 91.976C493.129 91.976 495.284 92.3707 497.204 93.16C499.145 93.928 500.788 95.048 502.132 96.52C503.497 97.9707 504.543 99.7307 505.268 101.8C505.993 103.848 506.356 106.152 506.356 108.712C506.356 111.272 505.993 113.587 505.268 115.656C504.543 117.725 503.497 119.485 502.132 120.936C500.788 122.387 499.145 123.507 497.204 124.296C495.284 125.064 493.129 125.448 490.74 125.448C488.329 125.448 486.153 125.064 484.212 124.296C482.292 123.507 480.649 122.387 479.284 120.936C477.919 119.485 476.863 117.725 476.116 115.656C475.391 113.587 475.028 111.272 475.028 108.712C475.028 106.152 475.391 103.848 476.116 101.8C476.863 99.7307 477.919 97.9707 479.284 96.52C480.649 95.048 482.292 93.928 484.212 93.16C486.153 92.3707 488.329 91.976 490.74 91.976ZM490.74 120.584C493.812 120.584 496.105 119.549 497.62 117.48C499.135 115.411 499.892 112.499 499.892 108.744C499.892 104.989 499.135 102.077 497.62 100.008C496.105 97.9173 493.812 96.872 490.74 96.872C487.625 96.872 485.3 97.9173 483.764 100.008C482.249 102.077 481.492 104.989 481.492 108.744C481.492 112.499 482.249 115.411 483.764 117.48C485.3 119.549 487.625 120.584 490.74 120.584ZM532.49 98.088C532.319 98.3653 532.138 98.568 531.946 98.696C531.754 98.8027 531.508 98.856 531.21 98.856C530.868 98.856 530.484 98.7387 530.058 98.504C529.652 98.2693 529.151 98.0133 528.554 97.736C527.978 97.4587 527.295 97.2027 526.506 96.968C525.716 96.7333 524.778 96.616 523.69 96.616C522.794 96.616 521.972 96.7333 521.226 96.968C520.5 97.1813 519.882 97.4907 519.37 97.896C518.858 98.28 518.463 98.7493 518.186 99.304C517.908 99.8373 517.77 100.413 517.77 101.032C517.77 101.843 518.004 102.515 518.474 103.048C518.964 103.581 519.594 104.04 520.362 104.424C521.151 104.808 522.036 105.16 523.018 105.48C524.02 105.779 525.034 106.099 526.058 106.44C527.103 106.781 528.116 107.176 529.098 107.624C530.1 108.051 530.986 108.595 531.754 109.256C532.543 109.896 533.172 110.675 533.642 111.592C534.132 112.509 534.378 113.629 534.378 114.952C534.378 116.467 534.1 117.875 533.546 119.176C533.012 120.456 532.212 121.565 531.146 122.504C530.1 123.443 528.799 124.179 527.242 124.712C525.684 125.245 523.903 125.512 521.898 125.512C519.658 125.512 517.588 125.139 515.69 124.392C513.791 123.645 512.202 122.696 510.922 121.544L512.394 119.144C512.564 118.845 512.778 118.621 513.034 118.472C513.29 118.301 513.631 118.216 514.058 118.216C514.463 118.216 514.879 118.365 515.306 118.664C515.732 118.963 516.244 119.293 516.842 119.656C517.439 119.997 518.164 120.317 519.018 120.616C519.871 120.893 520.938 121.032 522.218 121.032C523.284 121.032 524.212 120.904 525.002 120.648C525.791 120.371 526.442 120.008 526.954 119.56C527.487 119.091 527.882 118.557 528.138 117.96C528.394 117.363 528.522 116.733 528.522 116.072C528.522 115.219 528.276 114.515 527.786 113.96C527.316 113.384 526.687 112.893 525.898 112.488C525.13 112.083 524.244 111.731 523.242 111.432C522.239 111.133 521.215 110.813 520.17 110.472C519.124 110.131 518.1 109.736 517.098 109.288C516.095 108.84 515.199 108.275 514.41 107.592C513.642 106.909 513.012 106.077 512.522 105.096C512.052 104.115 511.818 102.92 511.818 101.512C511.818 100.253 512.074 99.048 512.586 97.896C513.119 96.744 513.876 95.7307 514.858 94.856C515.86 93.9813 517.087 93.288 518.538 92.776C520.01 92.2427 521.684 91.976 523.562 91.976C525.716 91.976 527.658 92.3173 529.386 93C531.135 93.6827 532.628 94.6213 533.866 95.816L532.49 98.088ZM590.698 115.144C591.082 115.144 591.412 115.293 591.69 115.592L594.378 118.536C592.5 120.755 590.207 122.472 587.498 123.688C584.81 124.904 581.567 125.512 577.77 125.512C574.442 125.512 571.423 124.936 568.714 123.784C566.026 122.632 563.722 121.021 561.802 118.952C559.903 116.883 558.431 114.408 557.386 111.528C556.34 108.648 555.818 105.48 555.818 102.024C555.818 98.568 556.362 95.4 557.45 92.52C558.559 89.64 560.106 87.1653 562.09 85.096C564.074 83.0267 566.442 81.416 569.194 80.264C571.967 79.112 575.028 78.536 578.378 78.536C581.642 78.536 584.543 79.0693 587.082 80.136C589.62 81.2027 591.828 82.6213 593.706 84.392L591.466 87.56C591.316 87.7947 591.124 87.9867 590.89 88.136C590.676 88.2853 590.388 88.36 590.026 88.36C589.62 88.36 589.14 88.1573 588.586 87.752C588.052 87.3467 587.338 86.8987 586.442 86.408C585.567 85.896 584.479 85.4373 583.178 85.032C581.876 84.6267 580.255 84.424 578.314 84.424C576.031 84.424 573.94 84.8293 572.042 85.64C570.143 86.4293 568.5 87.5813 567.114 89.096C565.748 90.5893 564.682 92.4347 563.914 94.632C563.167 96.808 562.794 99.272 562.794 102.024C562.794 104.819 563.188 107.304 563.978 109.48C564.767 111.656 565.855 113.501 567.242 115.016C568.628 116.531 570.26 117.683 572.138 118.472C574.015 119.261 576.042 119.656 578.218 119.656C579.54 119.656 580.724 119.581 581.77 119.432C582.836 119.261 583.807 119.016 584.682 118.696C585.578 118.376 586.42 117.971 587.21 117.48C587.999 116.968 588.778 116.36 589.546 115.656C589.716 115.507 589.898 115.389 590.09 115.304C590.282 115.197 590.484 115.144 590.698 115.144ZM617.419 110.568C614.88 110.653 612.725 110.856 610.955 111.176C609.184 111.475 607.744 111.88 606.635 112.392C605.525 112.904 604.725 113.512 604.235 114.216C603.744 114.899 603.499 115.667 603.499 116.52C603.499 117.331 603.627 118.035 603.883 118.632C604.16 119.208 604.523 119.688 604.97 120.072C605.44 120.435 605.984 120.701 606.603 120.872C607.221 121.043 607.893 121.128 608.619 121.128C609.579 121.128 610.453 121.032 611.243 120.84C612.053 120.648 612.811 120.381 613.515 120.04C614.219 119.677 614.891 119.24 615.531 118.728C616.171 118.216 616.8 117.629 617.419 116.968V110.568ZM599.115 97.032C600.928 95.304 602.891 94.0133 605.003 93.16C607.136 92.3067 609.472 91.88 612.01 91.88C613.867 91.88 615.509 92.1893 616.939 92.808C618.368 93.4053 619.573 94.248 620.555 95.336C621.536 96.424 622.272 97.7253 622.763 99.24C623.275 100.755 623.531 102.429 623.531 104.264V125H620.747C620.128 125 619.659 124.904 619.339 124.712C619.019 124.499 618.763 124.115 618.571 123.56L617.899 120.712C617.067 121.48 616.245 122.163 615.435 122.76C614.624 123.336 613.771 123.837 612.875 124.264C612 124.669 611.061 124.979 610.059 125.192C609.056 125.405 607.947 125.512 606.731 125.512C605.451 125.512 604.245 125.341 603.115 125C602.005 124.637 601.035 124.093 600.203 123.368C599.371 122.643 598.709 121.736 598.219 120.648C597.749 119.56 597.515 118.291 597.515 116.84C597.515 115.56 597.856 114.333 598.539 113.16C599.243 111.965 600.373 110.899 601.931 109.96C603.509 109.021 605.557 108.253 608.075 107.656C610.613 107.059 613.728 106.717 617.419 106.632V104.264C617.419 101.811 616.896 99.976 615.851 98.76C614.805 97.544 613.269 96.936 611.243 96.936C609.877 96.936 608.725 97.1067 607.787 97.448C606.869 97.7893 606.069 98.1733 605.387 98.6C604.725 99.0053 604.139 99.3787 603.627 99.72C603.136 100.061 602.624 100.232 602.091 100.232C601.664 100.232 601.291 100.115 600.971 99.88C600.672 99.6453 600.427 99.368 600.235 99.048L599.115 97.032ZM637.772 98.728C638.817 96.5947 640.076 94.92 641.548 93.704C643.02 92.488 644.791 91.88 646.86 91.88C647.564 91.88 648.225 91.9653 648.844 92.136C649.484 92.2853 650.039 92.52 650.508 92.84L650.092 97.544C649.943 98.12 649.591 98.408 649.036 98.408C648.737 98.408 648.289 98.3547 647.692 98.248C647.095 98.12 646.455 98.056 645.772 98.056C644.769 98.056 643.884 98.2053 643.116 98.504C642.348 98.7813 641.655 99.208 641.036 99.784C640.439 100.339 639.905 101.032 639.436 101.864C638.967 102.675 638.529 103.603 638.124 104.648V125H631.884V92.488H635.468C636.151 92.488 636.609 92.616 636.844 92.872C637.1 93.1067 637.281 93.5333 637.388 94.152L637.772 98.728ZM672.294 110.568C669.755 110.653 667.6 110.856 665.83 111.176C664.059 111.475 662.619 111.88 661.51 112.392C660.4 112.904 659.6 113.512 659.11 114.216C658.619 114.899 658.374 115.667 658.374 116.52C658.374 117.331 658.502 118.035 658.758 118.632C659.035 119.208 659.398 119.688 659.845 120.072C660.315 120.435 660.859 120.701 661.478 120.872C662.096 121.043 662.768 121.128 663.494 121.128C664.454 121.128 665.328 121.032 666.118 120.84C666.928 120.648 667.686 120.381 668.39 120.04C669.094 119.677 669.766 119.24 670.406 118.728C671.046 118.216 671.675 117.629 672.294 116.968V110.568ZM653.99 97.032C655.803 95.304 657.766 94.0133 659.878 93.16C662.011 92.3067 664.347 91.88 666.885 91.88C668.742 91.88 670.384 92.1893 671.814 92.808C673.243 93.4053 674.448 94.248 675.43 95.336C676.411 96.424 677.147 97.7253 677.638 99.24C678.15 100.755 678.406 102.429 678.406 104.264V125H675.622C675.003 125 674.534 124.904 674.214 124.712C673.894 124.499 673.638 124.115 673.446 123.56L672.774 120.712C671.942 121.48 671.12 122.163 670.31 122.76C669.499 123.336 668.646 123.837 667.75 124.264C666.875 124.669 665.936 124.979 664.934 125.192C663.931 125.405 662.822 125.512 661.606 125.512C660.326 125.512 659.12 125.341 657.99 125C656.88 124.637 655.91 124.093 655.078 123.368C654.246 122.643 653.584 121.736 653.094 120.648C652.624 119.56 652.39 118.291 652.39 116.84C652.39 115.56 652.731 114.333 653.414 113.16C654.118 111.965 655.248 110.899 656.806 109.96C658.384 109.021 660.432 108.253 662.95 107.656C665.488 107.059 668.603 106.717 672.294 106.632V104.264C672.294 101.811 671.771 99.976 670.726 98.76C669.68 97.544 668.144 96.936 666.118 96.936C664.752 96.936 663.6 97.1067 662.662 97.448C661.744 97.7893 660.944 98.1733 660.262 98.6C659.6 99.0053 659.014 99.3787 658.502 99.72C658.011 100.061 657.499 100.232 656.966 100.232C656.539 100.232 656.166 100.115 655.846 99.88C655.547 99.6453 655.302 99.368 655.11 99.048L653.99 97.032ZM693.287 92.488V127.048C693.287 128.392 693.106 129.64 692.743 130.792C692.402 131.965 691.847 132.979 691.079 133.832C690.332 134.707 689.351 135.389 688.135 135.88C686.94 136.371 685.49 136.616 683.783 136.616C683.079 136.616 682.439 136.563 681.863 136.456C681.266 136.349 680.668 136.2 680.071 136.008L680.327 132.616C680.412 132.211 680.604 131.987 680.903 131.944C681.18 131.901 681.724 131.88 682.535 131.88C684.178 131.88 685.34 131.507 686.023 130.76C686.706 130.013 687.047 128.776 687.047 127.048V92.488H693.287ZM694.471 82.44C694.471 83.016 694.354 83.5707 694.119 84.104C693.884 84.616 693.564 85.0747 693.159 85.48C692.754 85.864 692.284 86.1733 691.751 86.408C691.239 86.6213 690.684 86.728 690.087 86.728C689.511 86.728 688.967 86.6213 688.455 86.408C687.943 86.1733 687.484 85.864 687.079 85.48C686.695 85.0747 686.386 84.616 686.151 84.104C685.938 83.5707 685.831 83.016 685.831 82.44C685.831 81.8427 685.938 81.288 686.151 80.776C686.386 80.2427 686.695 79.784 687.079 79.4C687.484 78.9947 687.943 78.6853 688.455 78.472C688.967 78.2373 689.511 78.12 690.087 78.12C690.684 78.12 691.239 78.2373 691.751 78.472C692.284 78.6853 692.754 78.9947 693.159 79.4C693.564 79.784 693.884 80.2427 694.119 80.776C694.354 81.288 694.471 81.8427 694.471 82.44ZM719.794 110.568C717.255 110.653 715.1 110.856 713.33 111.176C711.559 111.475 710.119 111.88 709.01 112.392C707.9 112.904 707.1 113.512 706.61 114.216C706.119 114.899 705.874 115.667 705.874 116.52C705.874 117.331 706.002 118.035 706.258 118.632C706.535 119.208 706.898 119.688 707.345 120.072C707.815 120.435 708.359 120.701 708.978 120.872C709.596 121.043 710.268 121.128 710.994 121.128C711.954 121.128 712.828 121.032 713.618 120.84C714.428 120.648 715.186 120.381 715.89 120.04C716.594 119.677 717.266 119.24 717.906 118.728C718.546 118.216 719.175 117.629 719.794 116.968V110.568ZM701.49 97.032C703.303 95.304 705.266 94.0133 707.378 93.16C709.511 92.3067 711.847 91.88 714.385 91.88C716.242 91.88 717.884 92.1893 719.314 92.808C720.743 93.4053 721.948 94.248 722.93 95.336C723.911 96.424 724.647 97.7253 725.138 99.24C725.65 100.755 725.906 102.429 725.906 104.264V125H723.122C722.503 125 722.034 124.904 721.714 124.712C721.394 124.499 721.138 124.115 720.946 123.56L720.274 120.712C719.442 121.48 718.62 122.163 717.81 122.76C716.999 123.336 716.146 123.837 715.25 124.264C714.375 124.669 713.436 124.979 712.434 125.192C711.431 125.405 710.322 125.512 709.106 125.512C707.826 125.512 706.62 125.341 705.49 125C704.38 124.637 703.41 124.093 702.578 123.368C701.746 122.643 701.084 121.736 700.594 120.648C700.124 119.56 699.89 118.291 699.89 116.84C699.89 115.56 700.231 114.333 700.914 113.16C701.618 111.965 702.748 110.899 704.306 109.96C705.884 109.021 707.932 108.253 710.45 107.656C712.988 107.059 716.103 106.717 719.794 106.632V104.264C719.794 101.811 719.271 99.976 718.226 98.76C717.18 97.544 715.644 96.936 713.618 96.936C712.252 96.936 711.1 97.1067 710.162 97.448C709.244 97.7893 708.444 98.1733 707.762 98.6C707.1 99.0053 706.514 99.3787 706.002 99.72C705.511 100.061 704.999 100.232 704.466 100.232C704.039 100.232 703.666 100.115 703.346 99.88C703.047 99.6453 702.802 99.368 702.61 99.048L701.49 97.032ZM723.442 78.536L715.858 86.792C715.538 87.1547 715.228 87.4107 714.93 87.56C714.631 87.688 714.236 87.752 713.746 87.752H709.97L714.706 80.008C715.004 79.5173 715.324 79.1547 715.666 78.92C716.028 78.664 716.583 78.536 717.33 78.536H723.442ZM753.427 98.088C753.256 98.3653 753.075 98.568 752.883 98.696C752.691 98.8027 752.446 98.856 752.147 98.856C751.806 98.856 751.422 98.7387 750.995 98.504C750.59 98.2693 750.088 98.0133 749.491 97.736C748.915 97.4587 748.232 97.2027 747.443 96.968C746.654 96.7333 745.715 96.616 744.627 96.616C743.731 96.616 742.91 96.7333 742.163 96.968C741.438 97.1813 740.819 97.4907 740.307 97.896C739.795 98.28 739.4 98.7493 739.123 99.304C738.846 99.8373 738.707 100.413 738.707 101.032C738.707 101.843 738.942 102.515 739.411 103.048C739.902 103.581 740.531 104.04 741.299 104.424C742.088 104.808 742.974 105.16 743.955 105.48C744.958 105.779 745.971 106.099 746.995 106.44C748.04 106.781 749.054 107.176 750.035 107.624C751.038 108.051 751.923 108.595 752.691 109.256C753.48 109.896 754.11 110.675 754.579 111.592C755.07 112.509 755.315 113.629 755.315 114.952C755.315 116.467 755.038 117.875 754.483 119.176C753.95 120.456 753.15 121.565 752.083 122.504C751.038 123.443 749.736 124.179 748.179 124.712C746.622 125.245 744.84 125.512 742.835 125.512C740.595 125.512 738.526 125.139 736.627 124.392C734.728 123.645 733.139 122.696 731.859 121.544L733.331 119.144C733.502 118.845 733.715 118.621 733.971 118.472C734.227 118.301 734.568 118.216 734.995 118.216C735.4 118.216 735.816 118.365 736.243 118.664C736.67 118.963 737.182 119.293 737.779 119.656C738.376 119.997 739.102 120.317 739.955 120.616C740.808 120.893 741.875 121.032 743.155 121.032C744.222 121.032 745.15 120.904 745.939 120.648C746.728 120.371 747.379 120.008 747.891 119.56C748.424 119.091 748.819 118.557 749.075 117.96C749.331 117.363 749.459 116.733 749.459 116.072C749.459 115.219 749.214 114.515 748.723 113.96C748.254 113.384 747.624 112.893 746.835 112.488C746.067 112.083 745.182 111.731 744.179 111.432C743.176 111.133 742.152 110.813 741.107 110.472C740.062 110.131 739.038 109.736 738.035 109.288C737.032 108.84 736.136 108.275 735.347 107.592C734.579 106.909 733.95 106.077 733.459 105.096C732.99 104.115 732.755 102.92 732.755 101.512C732.755 100.253 733.011 99.048 733.523 97.896C734.056 96.744 734.814 95.7307 735.795 94.856C736.798 93.9813 738.024 93.288 739.475 92.776C740.947 92.2427 742.622 91.976 744.499 91.976C746.654 91.976 748.595 92.3173 750.323 93C752.072 93.6827 753.566 94.6213 754.803 95.816L753.427 98.088ZM389.473 181.904C389.473 186.427 390.039 190.832 391.169 195.12C392.3 199.408 393.953 203.472 396.129 207.312C396.492 208.016 396.588 208.56 396.417 208.944C396.247 209.328 395.98 209.637 395.617 209.872L392.833 211.568C391.233 209.115 389.868 206.672 388.737 204.24C387.628 201.829 386.721 199.408 386.017 196.976C385.335 194.523 384.833 192.048 384.513 189.552C384.193 187.056 384.033 184.507 384.033 181.904C384.033 179.28 384.193 176.72 384.513 174.224C384.833 171.728 385.335 169.264 386.017 166.832C386.721 164.379 387.628 161.947 388.737 159.536C389.868 157.104 391.233 154.661 392.833 152.208L395.617 153.904C395.98 154.139 396.247 154.448 396.417 154.832C396.588 155.216 396.492 155.76 396.129 156.464C393.953 160.304 392.3 164.379 391.169 168.688C390.039 172.976 389.473 177.381 389.473 181.904ZM427.909 163.536C427.695 163.899 427.471 164.165 427.237 164.336C427.002 164.507 426.703 164.592 426.341 164.592C425.957 164.592 425.519 164.421 425.029 164.08C424.538 163.717 423.919 163.323 423.173 162.896C422.447 162.448 421.573 162.053 420.549 161.712C419.525 161.349 418.298 161.168 416.869 161.168C415.525 161.168 414.341 161.349 413.317 161.712C412.314 162.053 411.471 162.533 410.789 163.152C410.106 163.749 409.583 164.464 409.221 165.296C408.879 166.107 408.709 166.992 408.709 167.952C408.709 169.189 409.018 170.213 409.637 171.024C410.277 171.835 411.109 172.528 412.133 173.104C413.157 173.68 414.319 174.181 415.621 174.608C416.922 175.035 418.255 175.483 419.621 175.952C420.986 176.4 422.319 176.923 423.621 177.52C424.922 178.117 426.085 178.875 427.109 179.792C428.133 180.688 428.954 181.797 429.573 183.12C430.213 184.421 430.533 186.021 430.533 187.92C430.533 189.947 430.181 191.845 429.477 193.616C428.794 195.387 427.791 196.933 426.469 198.256C425.146 199.579 423.514 200.624 421.573 201.392C419.653 202.139 417.466 202.512 415.013 202.512C413.541 202.512 412.111 202.363 410.725 202.064C409.338 201.787 408.026 201.392 406.789 200.88C405.551 200.347 404.389 199.717 403.301 198.992C402.234 198.245 401.274 197.413 400.421 196.496L402.373 193.232C402.565 192.976 402.789 192.763 403.045 192.592C403.322 192.421 403.631 192.336 403.973 192.336C404.421 192.336 404.933 192.571 405.509 193.04C406.106 193.509 406.831 194.032 407.685 194.608C408.559 195.163 409.594 195.675 410.789 196.144C412.005 196.613 413.477 196.848 415.205 196.848C416.613 196.848 417.871 196.667 418.981 196.304C420.09 195.92 421.018 195.387 421.765 194.704C422.533 194 423.119 193.157 423.525 192.176C423.93 191.195 424.133 190.107 424.133 188.912C424.133 187.568 423.823 186.469 423.205 185.616C422.586 184.763 421.765 184.048 420.741 183.472C419.717 182.896 418.554 182.405 417.253 182C415.951 181.595 414.618 181.179 413.253 180.752C411.887 180.304 410.554 179.792 409.253 179.216C407.951 178.64 406.789 177.893 405.765 176.976C404.741 176.037 403.919 174.875 403.301 173.488C402.682 172.08 402.373 170.352 402.373 168.304C402.373 166.661 402.693 165.072 403.333 163.536C403.973 162 404.901 160.645 406.117 159.472C407.354 158.277 408.869 157.328 410.661 156.624C412.453 155.899 414.501 155.536 416.805 155.536C419.386 155.536 421.754 155.952 423.909 156.784C426.085 157.595 427.973 158.768 429.573 160.304L427.909 163.536ZM445.793 202H438.945V156.048H445.793V202ZM480.909 163.536C480.695 163.899 480.471 164.165 480.237 164.336C480.002 164.507 479.703 164.592 479.341 164.592C478.957 164.592 478.519 164.421 478.029 164.08C477.538 163.717 476.919 163.323 476.173 162.896C475.447 162.448 474.573 162.053 473.549 161.712C472.525 161.349 471.298 161.168 469.869 161.168C468.525 161.168 467.341 161.349 466.317 161.712C465.314 162.053 464.471 162.533 463.789 163.152C463.106 163.749 462.583 164.464 462.221 165.296C461.879 166.107 461.709 166.992 461.709 167.952C461.709 169.189 462.018 170.213 462.637 171.024C463.277 171.835 464.109 172.528 465.133 173.104C466.157 173.68 467.319 174.181 468.621 174.608C469.922 175.035 471.255 175.483 472.621 175.952C473.986 176.4 475.319 176.923 476.621 177.52C477.922 178.117 479.085 178.875 480.109 179.792C481.133 180.688 481.954 181.797 482.573 183.12C483.213 184.421 483.533 186.021 483.533 187.92C483.533 189.947 483.181 191.845 482.477 193.616C481.794 195.387 480.791 196.933 479.469 198.256C478.146 199.579 476.514 200.624 474.573 201.392C472.653 202.139 470.466 202.512 468.013 202.512C466.541 202.512 465.111 202.363 463.725 202.064C462.338 201.787 461.026 201.392 459.789 200.88C458.551 200.347 457.389 199.717 456.301 198.992C455.234 198.245 454.274 197.413 453.421 196.496L455.373 193.232C455.565 192.976 455.789 192.763 456.045 192.592C456.322 192.421 456.631 192.336 456.973 192.336C457.421 192.336 457.933 192.571 458.509 193.04C459.106 193.509 459.831 194.032 460.685 194.608C461.559 195.163 462.594 195.675 463.789 196.144C465.005 196.613 466.477 196.848 468.205 196.848C469.613 196.848 470.871 196.667 471.981 196.304C473.09 195.92 474.018 195.387 474.765 194.704C475.533 194 476.119 193.157 476.525 192.176C476.93 191.195 477.133 190.107 477.133 188.912C477.133 187.568 476.823 186.469 476.205 185.616C475.586 184.763 474.765 184.048 473.741 183.472C472.717 182.896 471.554 182.405 470.253 182C468.951 181.595 467.618 181.179 466.253 180.752C464.887 180.304 463.554 179.792 462.253 179.216C460.951 178.64 459.789 177.893 458.765 176.976C457.741 176.037 456.919 174.875 456.301 173.488C455.682 172.08 455.373 170.352 455.373 168.304C455.373 166.661 455.693 165.072 456.333 163.536C456.973 162 457.901 160.645 459.117 159.472C460.354 158.277 461.869 157.328 463.661 156.624C465.453 155.899 467.501 155.536 469.805 155.536C472.386 155.536 474.754 155.952 476.909 156.784C479.085 157.595 480.973 158.768 482.573 160.304L480.909 163.536ZM524.041 192.144C524.425 192.144 524.756 192.293 525.033 192.592L527.721 195.536C525.844 197.755 523.551 199.472 520.841 200.688C518.153 201.904 514.911 202.512 511.113 202.512C507.785 202.512 504.767 201.936 502.057 200.784C499.369 199.632 497.065 198.021 495.145 195.952C493.247 193.883 491.775 191.408 490.729 188.528C489.684 185.648 489.161 182.48 489.161 179.024C489.161 175.568 489.705 172.4 490.793 169.52C491.903 166.64 493.449 164.165 495.433 162.096C497.417 160.027 499.785 158.416 502.537 157.264C505.311 156.112 508.372 155.536 511.721 155.536C514.985 155.536 517.887 156.069 520.425 157.136C522.964 158.203 525.172 159.621 527.049 161.392L524.809 164.56C524.66 164.795 524.468 164.987 524.233 165.136C524.02 165.285 523.732 165.36 523.369 165.36C522.964 165.36 522.484 165.157 521.929 164.752C521.396 164.347 520.681 163.899 519.785 163.408C518.911 162.896 517.823 162.437 516.521 162.032C515.22 161.627 513.599 161.424 511.657 161.424C509.375 161.424 507.284 161.829 505.385 162.64C503.487 163.429 501.844 164.581 500.457 166.096C499.092 167.589 498.025 169.435 497.257 171.632C496.511 173.808 496.137 176.272 496.137 179.024C496.137 181.819 496.532 184.304 497.321 186.48C498.111 188.656 499.199 190.501 500.585 192.016C501.972 193.531 503.604 194.683 505.481 195.472C507.359 196.261 509.385 196.656 511.561 196.656C512.884 196.656 514.068 196.581 515.113 196.432C516.18 196.261 517.151 196.016 518.025 195.696C518.921 195.376 519.764 194.971 520.553 194.48C521.343 193.968 522.121 193.36 522.889 192.656C523.06 192.507 523.241 192.389 523.433 192.304C523.625 192.197 523.828 192.144 524.041 192.144ZM558.986 184.88L552.17 167.056C551.68 165.84 551.189 164.304 550.698 162.448C550.464 163.365 550.218 164.219 549.962 165.008C549.728 165.797 549.493 166.501 549.258 167.12L542.474 184.88H558.986ZM572.458 202H567.21C566.613 202 566.122 201.851 565.738 201.552C565.354 201.253 565.077 200.869 564.906 200.4L560.842 189.744H540.586L536.522 200.4C536.373 200.805 536.096 201.179 535.69 201.52C535.285 201.84 534.794 202 534.218 202H528.97L547.274 156.048H554.154L572.458 202ZM615.827 156.048V202H612.371C611.838 202 611.39 201.904 611.027 201.712C610.686 201.52 610.334 201.211 609.971 200.784L584.019 167.216C584.062 167.792 584.094 168.357 584.115 168.912C584.158 169.467 584.179 169.989 584.179 170.48V202H578.195V156.048H581.715C582.313 156.048 582.761 156.123 583.059 156.272C583.358 156.4 583.689 156.709 584.051 157.2L610.067 190.8C610.003 190.181 609.95 189.584 609.907 189.008C609.886 188.411 609.875 187.856 609.875 187.344V156.048H615.827ZM630.555 181.904C630.555 177.381 629.979 172.976 628.827 168.688C627.697 164.379 626.043 160.304 623.867 156.464C623.505 155.76 623.409 155.216 623.579 154.832C623.771 154.448 624.049 154.139 624.411 153.904L627.195 152.208C628.795 154.661 630.15 157.104 631.259 159.536C632.369 161.947 633.275 164.379 633.979 166.832C634.683 169.264 635.195 171.728 635.515 174.224C635.835 176.72 635.995 179.28 635.995 181.904C635.995 184.507 635.835 187.056 635.515 189.552C635.195 192.048 634.683 194.523 633.979 196.976C633.275 199.408 632.369 201.829 631.259 204.24C630.15 206.672 628.795 209.115 627.195 211.568L624.411 209.872C624.049 209.637 623.771 209.328 623.579 208.944C623.409 208.56 623.505 208.016 623.867 207.312C626.043 203.472 627.697 199.408 628.827 195.12C629.979 190.832 630.555 186.427 630.555 181.904Z" fill="#4C5773"/>
</svg>
